<?xml version="1.0" encoding="utf-8"?>
<!-- Generator: Adobe Illustrator 25.0.1, SVG Export Plug-In . SVG Version: 6.00 Build 0)  -->
<svg version="1.1" id="Layer_1" xmlns="http://www.w3.org/2000/svg" xmlns:xlink="http://www.w3.org/1999/xlink" x="0px" y="0px"
	 viewBox="0 0 1012 506" style="enable-background:new 0 0 1012 506;" xml:space="preserve">
<style type="text/css">
	.st0{fill:url(#svg_2_1_);}
	.st1{fill:url(#svg_3_1_);}
	.st2{fill:url(#svg_4_1_);}
</style>
<g>
	<g id="SvgjsG1007">
		<g id="svg_1" transform="matrix(1.51954 -0.8702 0.809628 1.41377 -37.9376 17.4617)">
			
				<linearGradient id="svg_2_1_" gradientUnits="userSpaceOnUse" x1="-79.6902" y1="332.5533" x2="-78.3427" y2="332.5533" gradientTransform="matrix(148.9169 47.6779 79.3446 -77.4598 -14438.7285 29774.916)">
				<stop  offset="0" style="stop-color:#7D141D"/>
				<stop  offset="1" style="stop-color:#FF1E27"/>
			</linearGradient>
			<path id="svg_2" class="st0" d="M196.3,243.1c1.4,0.8,2.9,1.6,4.3,2.4l-108.2,2.1c1.5-0.9,2.9-1.7,4.4-2.6
				c13.5-7.9,27-15.9,40.5-23.8c3.2-1.9,6.5-3.8,9.7-5.7c3.2,1.8,6.3,3.6,9.5,5.3C169.8,228.2,183,235.6,196.3,243.1 M207,241.5
				c-10.3-6-20.9-11.6-31.3-17.5c-4.1-2.3-9.1-4.5-12.1-8.3c-1.8-2.3-2.4-5.3-4.1-7.7c-1.3-1.9-3.1-3.5-5.1-4.7
				c-2-1.2-4.3-1.7-6.6-2.1l0.1-5.9c0-1.4,1.2-3,2.2-3.9c2.1-2,3-4,3.1-6.2c0-2.1-0.8-4.1-2.3-5.6c-1.5-1.4-3.5-2.2-5.6-2
				c-2.3,0.2-4.5,1.4-5.8,3.3c-0.3,0.4-0.5,0.8-0.8,1.2c-0.5,0.7-1,1.4-1.6,2.1c-0.1,0-0.1,0-0.2,0c-0.6,0-1,0.5-1,1.1
				c0,0.6,0.4,1,1,1c0.6,0,1-0.5,1-1.1c0,0,0-0.1,0-0.1c0.7-0.8,1.2-1.6,1.8-2.3c0.2-0.4,0.5-0.7,0.8-1.1c1.2-1.6,3-2.7,4.9-2.8
				c1.7-0.1,3.5,0.5,4.7,1.7c1.3,1.2,2,2.9,1.9,4.7c0,2-0.9,3.6-2.7,5.4c-1.2,1.2-2.5,3-2.6,4.8l-0.1,5.9c-2.3,0.5-4.6,1.1-6.7,2.4
				c-2,1.3-3.9,2.9-5.3,4.9c-1.7,2.5-2.4,5.4-4.3,7.8c-3.1,3.9-8.2,6.3-12.4,8.8c-10.6,6.3-21.4,12.3-31.9,18.7
				c-3.4,2-6.3,5.7-5.6,9.8c0.1,0.9,0.7,0.5,1.2,0.2c0.5-0.3,0.9-0.5,1.4-0.8c1.3-0.8,2.6-1.5,3.9-2.3l119-2.3
				c1.3,0.7,2.5,1.4,3.8,2.1c0.5,0.3,0.9,0.5,1.4,0.8c0.5,0.3,1,0.7,1.2-0.3C213.1,246.9,210.3,243.4,207,241.5"/>
		</g>
	</g>
	<g id="SvgjsG1008" transform="matrix(1.64181 0 0 1.64181 -2.74101 100.34)">
		
			<linearGradient id="svg_3_1_" gradientUnits="userSpaceOnUse" x1="69.2046" y1="274.7779" x2="70.538" y2="274.7779" gradientTransform="matrix(190.4764 0 0 -21.4338 -12968.8418 5968.2515)">
			<stop  offset="0" style="stop-color:#7D141D"/>
			<stop  offset="1" style="stop-color:#FF1E27"/>
		</linearGradient>
		<path id="svg_3" class="st1" d="M232.9,72.3c1.2,1.3,1.2,3.1,1.2,5.9c0,0.2,0,0.4,0,0.6c0,1.6,0,2.8-0.2,3.8
			c-0.1,0.9-0.5,2.1-1.7,2.9c-1.5,1-3.8,1.1-8.7,1.1c-0.8,0-1.5,0-2.1,0c-3.9,0-5.9-0.2-7.1-1.5c-1.3-1.4-1.3-3.4-1.3-6.4
			c0-3.4,0-5.4,1.7-6.7c1.4-1.1,3.5-1.1,8-1.2l0.9,0C229.1,70.9,231.5,70.8,232.9,72.3L232.9,72.3L232.9,72.3z M231,78.2
			c0-1.6,0-3.2-0.3-3.5c-0.4-0.4-2-0.5-4.2-0.5c-0.9,0-1.9,0-2.9,0l-0.9,0c-3.2,0-5.6,0.1-6.2,0.5c-0.4,0.3-0.4,2.1-0.4,4.1
			c0,1.9,0,3.7,0.4,4.1c0.6,0.6,3.9,0.6,7.1,0.6c3.6,0,6.3-0.1,7-0.6c0.4-0.3,0.4-1.9,0.4-4.1C231,78.6,231,78.4,231,78.2
			C231,78.2,231,78.2,231,78.2z M259.8,70.7l0.1,7.9c0,1.8-0.7,3.5-1.9,4.8c-1.3,1.4-3.9,3.1-8.7,3.2c0,0-0.1,0-0.1,0
			c-3.6,0-6.6-1.1-8.5-3.1c-1.3-1.4-2-3.1-2-4.9l-0.1-7.9l3.1,0l0.1,7.9l0,0c0,0.9,0.4,1.8,1.1,2.5c1.3,1.4,3.6,2.1,6.4,2.1
			c2.9,0,5.2-0.8,6.5-2.2c0.7-0.7,1-1.6,1-2.5v0l-0.1-7.9C256.7,70.7,259.8,70.7,259.8,70.7z M264.4,70.7h21.3V74h-9.1v12.6h-3.1V74
			h-9.1L264.4,70.7C264.4,70.7,264.4,70.7,264.4,70.7z M293.2,83.4h18.1v3.3h-21.3V70.8h3.1L293.2,83.4L293.2,83.4L293.2,83.4z
			 M326.7,69.6L339,86.6H335l-3.4-4.7h-9.8l-3.4,4.7h-3.9L326.7,69.6z M324.2,78.6h5.1l-2.5-3.5L324.2,78.6L324.2,78.6z M363.8,71.1
			h3.9l-12,16.7l-4.7-6.5l-4.7,6.5l-12-16.7h3.9l8.2,11.3l2.8-3.8l-5.4-7.5h3.9l3.5,4.8l3.5-4.8h3.9l-5.4,7.5l2.8,3.8L363.8,71.1
			L363.8,71.1z"/>
	</g>
	<g id="SvgjsG1009" transform="matrix(1.44763 0 0 1.44763 -2.41605 131.775)">
		
			<linearGradient id="svg_4_1_" gradientUnits="userSpaceOnUse" x1="78.2721" y1="287.9628" x2="79.6055" y2="287.9628" gradientTransform="matrix(190.4759 0 0 -16.7438 -14660.6504 4913.27)">
			<stop  offset="0" style="stop-color:#7D141D"/>
			<stop  offset="1" style="stop-color:#FF1E27"/>
		</linearGradient>
		<path id="svg_4" class="st2" d="M269.6,87.1l-18.1,0v3l12.1,0l0,3.3l-12.1,0v3h18.1v3.3h-21.3V83.9h21.3L269.6,87.1
			C269.6,87.1,269.6,87.1,269.6,87.1z M293.3,93.1c1.3,1.4,2,3.1,2,4.9l0,1.6l-3.1,0l0-1.6c0-0.9-0.4-1.8-1.1-2.5
			c-1.3-1.4-3.6-2.1-6.4-2.1c-2.9,0-5.2,0.8-6.5,2.2c-0.7,0.7-1,1.6-1,2.5l0,1.6l-3.1,0l0-1.6c0-1.8,0.7-3.5,1.9-4.8
			c0.5-0.5,1.1-1.1,2-1.5c-0.7-0.4-1.4-0.9-1.9-1.5c-1.3-1.4-2-3.1-2-4.9l0-1.6l3.1,0l0,1.6c0,0.9,0.4,1.8,1.1,2.5
			c1.3,1.4,3.6,2.1,6.4,2.1c2.9,0,5.2-0.8,6.5-2.2c0.7-0.7,1-1.6,1-2.5l0-1.6l3.1,0l0,1.6c0,1.8-0.7,3.5-1.9,4.8
			c-0.5,0.5-1.1,1.1-2,1.5C292.1,92,292.8,92.5,293.3,93.1L293.3,93.1L293.3,93.1z M316.1,83.7c2,0,4.9,1.3,4.9,4.8
			s-2.7,4.8-4.6,4.8h-13.6l0,6.3l-3.1,0l0.1-14.2v-1.6h0v0l1.6,0L316.1,83.7C316.1,83.7,316.1,83.7,316.1,83.7z M317.3,89.7
			c0.3-0.2,0.6-0.4,0.6-1.3c0-0.7-0.2-1-0.8-1.3c-0.5-0.2-1-0.3-1-0.3h-13.2v3h13.5C316.6,90,317,89.9,317.3,89.7L317.3,89.7
			L317.3,89.7z M344.6,96.3l1.5,0l0,3.2l-1.5,0c-0.2,0-0.5,0-0.8,0c-2.2,0-5.6-0.2-7.8-2.5c-1-1-1.6-2.3-1.8-3.8h-5.6l0,6.2l-3.1,0
			l0-14.1v-1.6h0v0l1.5,0h14.6c2,0,4.9,1.3,4.9,4.7c0,3.5-2.7,4.7-4.5,4.7h-4.6c0.2,0.6,0.4,1.1,0.8,1.5
			C339.8,96.4,343,96.3,344.6,96.3C344.6,96.3,344.6,96.3,344.6,96.3z M328.7,90.1l13.4,0c0.1,0,0.5-0.1,0.9-0.2
			c0.3-0.2,0.6-0.4,0.6-1.3c0-0.6-0.2-1-0.8-1.3c-0.5-0.2-1-0.2-1-0.2h-13.1L328.7,90.1C328.7,90.1,328.7,90.1,328.7,90.1z
			 M372.3,87.1l-18.1,0v3l12.1,0l0,3.3l-12.1,0v3h18.1v3.3h-21.3V83.9h21.3L372.3,87.1L372.3,87.1L372.3,87.1z M380.5,87.2
			c-0.3,0.2-0.6,0.4-0.6,1.3c0,0.6,0.2,1,0.7,1.2c0.5,0.3,1.1,0.3,1.1,0.3l11.4,0c2,0,4.9,1.3,4.9,4.8s-2.7,4.8-4.6,4.8h-16.7v-3.3
			h16.7c0.1,0,0.5-0.1,0.9-0.3c0.3-0.2,0.6-0.4,0.6-1.3c0-0.6-0.2-1-0.7-1.2c-0.5-0.3-1.1-0.3-1.1-0.3l-11.4-0.1v0
			c-2,0-4.9-1.3-4.9-4.8s2.7-4.8,4.6-4.8H398V87h-16.7C381.3,87,380.8,87,380.5,87.2C380.5,87.2,380.5,87.2,380.5,87.2z M406.2,87.2
			c-0.3,0.2-0.6,0.4-0.6,1.3c0,0.6,0.2,1,0.7,1.2c0.5,0.3,1.1,0.3,1.1,0.3l11.4,0c2,0,4.9,1.3,4.9,4.8s-2.7,4.8-4.6,4.8h-16.7v-3.3
			h16.7c0.1,0,0.5-0.1,0.9-0.3c0.3-0.2,0.6-0.4,0.6-1.3c0-0.6-0.2-1-0.7-1.2c-0.5-0.3-1.1-0.3-1.1-0.3l-11.4-0.1v0
			c-2,0-4.9-1.3-4.9-4.8s2.7-4.8,4.6-4.8h16.7V87h-16.7C407,87,406.6,87,406.2,87.2C406.2,87.2,406.2,87.2,406.2,87.2z"/>
	</g>
</g>
</svg>
